<?xml version="1.0" encoding="UTF-8" standalone="no"?>
<svg
   width="217.42476mm"
   height="158.185mm"
   viewBox="0 0 616.32305 448.39812"
   version="1.2"
   id="svg78"
   sodipodi:docname="3.svg"
   inkscape:version="1.1.2 (b8e25be833, 2022-02-05)"
   xmlns:inkscape="http://www.inkscape.org/namespaces/inkscape"
   xmlns:sodipodi="http://sodipodi.sourceforge.net/DTD/sodipodi-0.dtd"
   xmlns="http://www.w3.org/2000/svg"
   xmlns:svg="http://www.w3.org/2000/svg">
  <sodipodi:namedview
     id="namedview80"
     pagecolor="#ffffff"
     bordercolor="#666666"
     borderopacity="1.0"
     inkscape:pageshadow="2"
     inkscape:pageopacity="0.0"
     inkscape:pagecheckerboard="0"
     inkscape:document-units="mm"
     showgrid="false"
     inkscape:zoom="1.2570112"
     inkscape:cx="413.28192"
     inkscape:cy="309.46423"
     inkscape:window-width="1858"
     inkscape:window-height="1057"
     inkscape:window-x="-8"
     inkscape:window-y="-8"
     inkscape:window-maximized="1"
     inkscape:current-layer="svg78" />
  <title
     id="title2">Qt SVG Document</title>
  <desc
     id="desc4">Generated with Qt</desc>
  <defs
     id="defs6" />
  <g
     fill="none"
     stroke="#000000"
     stroke-opacity="1"
     stroke-width="1"
     stroke-linecap="square"
     stroke-linejoin="bevel"
     font-family="'.AppleSystemUIFont'"
     font-size="13px"
     font-weight="400"
     font-style="normal"
     id="g8"
     style="fill-rule:evenodd"
     transform="translate(-711.41148,-39.07771)" />
  <g
     fill="none"
     stroke="#000000"
     stroke-opacity="1"
     stroke-width="1"
     stroke-linecap="square"
     stroke-linejoin="bevel"
     transform="matrix(1.00313,0,0,1.00313,-711.41148,-39.07771)"
     font-family="'.AppleSystemUIFont'"
     font-size="13px"
     font-weight="400"
     font-style="normal"
     id="g10"
     style="fill-rule:evenodd" />
  <g
     fill="none"
     stroke="#000000"
     stroke-opacity="1"
     stroke-width="1"
     stroke-linecap="square"
     stroke-linejoin="bevel"
     transform="matrix(1.00313,0,0,1.00313,-711.41148,-39.07771)"
     font-family="'.AppleSystemUIFont'"
     font-size="13px"
     font-weight="400"
     font-style="normal"
     id="g16"
     style="fill-rule:evenodd" />
  <g
     fill="none"
     stroke="#000000"
     stroke-opacity="1"
     stroke-width="1"
     stroke-linecap="square"
     stroke-linejoin="bevel"
     transform="matrix(1.00313,0,0,1.00313,-711.41148,-39.07771)"
     font-family="'.AppleSystemUIFont'"
     font-size="13px"
     font-weight="400"
     font-style="normal"
     id="g18"
     style="fill-rule:evenodd" />
  <g
     fill="none"
     stroke="#ffffff"
     stroke-opacity="1"
     stroke-width="1"
     stroke-linecap="round"
     stroke-linejoin="round"
     transform="matrix(1.00313,0,0,1.00313,-11.535995,-11.034959)"
     font-family="'.AppleSystemUIFont'"
     font-size="13px"
     font-weight="400"
     font-style="normal"
     id="g26"
     style="fill-rule:evenodd">
    <polyline
       fill="none"
       vector-effect="none"
       points="12.5,11.5 12.5,457.5 624.5,457.5 624.5,11.5 12.5,11.5 "
       id="polyline24" />
  </g>
  <g
     fill="none"
     stroke="#000000"
     stroke-opacity="1"
     stroke-width="1"
     stroke-linecap="square"
     stroke-linejoin="bevel"
     transform="matrix(1.00313,0,0,1.00313,-711.41148,-39.07771)"
     font-family="'.AppleSystemUIFont'"
     font-size="13px"
     font-weight="400"
     font-style="normal"
     id="g28"
     style="fill-rule:evenodd" />
  <g
     fill="none"
     stroke="#000000"
     stroke-opacity="1"
     stroke-width="1"
     stroke-linecap="square"
     stroke-linejoin="bevel"
     transform="matrix(1.00313,0,0,1.00313,-711.41148,-39.07771)"
     font-family="'.AppleSystemUIFont'"
     font-size="13px"
     font-weight="400"
     font-style="normal"
     id="g30"
     style="fill-rule:evenodd" />
  <g
     fill="none"
     stroke="#000000"
     stroke-opacity="1"
     stroke-width="1"
     stroke-linecap="square"
     stroke-linejoin="bevel"
     transform="matrix(1.00313,0,0,1.00313,-711.41148,-39.07771)"
     font-family="'.AppleSystemUIFont'"
     font-size="13px"
     font-weight="400"
     font-style="normal"
     id="g32"
     style="fill-rule:evenodd" />
  <g
     fill="none"
     stroke="#000000"
     stroke-opacity="1"
     stroke-width="1"
     stroke-linecap="square"
     stroke-linejoin="bevel"
     transform="matrix(1.00313,0,0,1.00313,-711.41148,-39.07771)"
     font-family="'.AppleSystemUIFont'"
     font-size="13px"
     font-weight="400"
     font-style="normal"
     id="g34"
     style="fill-rule:evenodd" />
  <g
     fill="none"
     stroke="#56b4e9"
     stroke-opacity="1"
     stroke-width="2"
     stroke-linecap="round"
     stroke-linejoin="round"
     transform="matrix(1.00313,0,0,1.00313,-11.535995,-11.034959)"
     font-family="'.AppleSystemUIFont'"
     font-size="13px"
     font-weight="400"
     font-style="normal"
     id="g38"
     style="fill-rule:evenodd">
    <polyline
       fill="none"
       vector-effect="none"
       points="12.5,305.8 12.5,305.8 18.7,311.8 24.9,317.8 31.1,323.8 37.2,329.6 43.4,335.4 49.6,341.1 55.8,346.6 62,352 68.2,357.2 74.4,362.1 80.5,366.9 86.7,371.4 92.9,375.6 99.1,379.6 105.3,383.2 111.5,386.6 117.7,389.6 123.8,392.3 130,394.6 136.2,396.6 142.4,398.2 148.6,399.4 154.8,400.3 161,400.7 167.1,400.8 173.3,400.5 179.5,399.9 185.7,398.8 191.9,397.4 198.1,395.6 204.3,393.5 210.4,391 216.6,388.1 222.8,384.9 229,381.4 235.2,377.6 241.4,373.5 247.6,369.2 253.7,364.5 259.9,359.7 266.1,354.6 272.3,349.3 278.5,343.9 284.7,338.3 290.9,332.6 297,326.7 303.2,320.8 309.4,314.8 315.6,308.8 321.8,302.7 328,296.7 334.2,290.7 340.4,284.8 346.5,279 352.7,273.2 358.9,267.6 365.1,262.2 371.3,256.9 377.5,251.8 383.7,247 389.8,242.4 396,238 402.2,233.9 408.4,230.1 414.6,226.6 420.8,223.4 427,220.6 433.1,218.1 439.3,215.9 445.5,214.1 451.7,212.7 457.9,211.6 464.1,211 470.3,210.7 476.4,210.8 482.6,211.3 488.8,212.1 495,213.4 501.2,215 507.4,216.9 513.6,219.3 519.7,222 525.9,225 532.1,228.3 538.3,232 544.5,235.9 550.7,240.1 556.9,244.6 563,249.4 569.2,254.4 575.4,259.5 581.6,264.9 587.8,270.4 594,276.1 600.2,281.9 606.3,287.8 612.5,293.7 618.7,299.7 624.9,305.8 "
       id="polyline36" />
  </g>
  <g
     fill="none"
     stroke="#000000"
     stroke-opacity="1"
     stroke-width="1"
     stroke-linecap="square"
     stroke-linejoin="bevel"
     transform="matrix(1.00313,0,0,1.00313,-711.41148,-39.07771)"
     font-family="'.AppleSystemUIFont'"
     font-size="13px"
     font-weight="400"
     font-style="normal"
     id="g40"
     style="fill-rule:evenodd" />
  <g
     fill="none"
     stroke="#000000"
     stroke-opacity="1"
     stroke-width="1"
     stroke-linecap="square"
     stroke-linejoin="bevel"
     transform="matrix(1.00313,0,0,1.00313,-711.41148,-39.07771)"
     font-family="'.AppleSystemUIFont'"
     font-size="13px"
     font-weight="400"
     font-style="normal"
     id="g42"
     style="fill-rule:evenodd" />
  <g
     fill="none"
     stroke="#000000"
     stroke-opacity="1"
     stroke-width="1"
     stroke-linecap="square"
     stroke-linejoin="bevel"
     transform="matrix(1.00313,0,0,1.00313,-711.41148,-39.07771)"
     font-family="'.AppleSystemUIFont'"
     font-size="13px"
     font-weight="400"
     font-style="normal"
     id="g44"
     style="fill-rule:evenodd" />
  <g
     fill="none"
     stroke="#000000"
     stroke-opacity="1"
     stroke-width="1"
     stroke-linecap="square"
     stroke-linejoin="bevel"
     transform="matrix(1.00313,0,0,1.00313,-711.41148,-39.07771)"
     font-family="'.AppleSystemUIFont'"
     font-size="13px"
     font-weight="400"
     font-style="normal"
     id="g46"
     style="fill-rule:evenodd" />
  <g
     fill="none"
     stroke="#56b4e9"
     stroke-opacity="1"
     stroke-width="2"
     stroke-linecap="round"
     stroke-linejoin="round"
     transform="matrix(1.00313,0,0,1.00313,-11.535995,-11.034959)"
     font-family="'.AppleSystemUIFont'"
     font-size="13px"
     font-weight="400"
     font-style="normal"
     id="g50"
     style="fill-rule:evenodd">
    <polyline
       fill="none"
       vector-effect="none"
       points="12.5,210.7 12.5,210.7 18.7,198.6 24.9,186.8 31.1,175.3 37.2,164.4 43.4,154.3 49.6,145.1 55.8,136.9 62,129.9 68.2,124.2 74.4,119.9 80.5,117 86.7,115.7 92.9,115.9 99.1,117.6 105.3,120.8 111.5,125.5 117.7,131.5 123.8,138.8 130,147.3 136.2,156.8 142.4,167.1 148.6,178.2 154.8,189.7 161,201.6 167.1,213.7 173.3,225.7 179.5,237.5 185.7,248.8 191.9,259.5 198.1,269.5 204.3,278.4 210.4,286.3 216.6,293 222.8,298.4 229,302.3 235.2,304.8 241.4,305.8 247.6,305.2 253.7,303.1 259.9,299.5 266.1,294.5 272.3,288.1 278.5,280.5 284.7,271.8 290.9,262.1 297,251.5 303.2,240.3 309.4,228.7 315.6,216.7 321.8,204.6 328,192.7 334.2,181 340.4,169.8 346.5,159.3 352.7,149.6 358.9,140.8 365.1,133.2 371.3,126.9 377.5,121.9 383.7,118.3 389.8,116.2 396,115.6 402.2,116.6 408.4,119 414.6,123 420.8,128.3 427,135 433.1,142.9 439.3,151.9 445.5,161.8 451.7,172.6 457.9,183.9 464.1,195.7 470.3,207.7 476.4,219.7 482.6,231.6 488.8,243.2 495,254.2 501.2,264.6 507.4,274.1 513.6,282.5 519.7,289.8 525.9,295.9 532.1,300.5 538.3,303.7 544.5,305.5 550.7,305.7 556.9,304.3 563,301.5 569.2,297.2 575.4,291.5 581.6,284.5 587.8,276.3 594,267.1 600.2,256.9 606.3,246 612.5,234.6 618.7,222.7 624.9,210.7 "
       id="polyline48" />
  </g>
  <g
     fill="none"
     stroke="#000000"
     stroke-opacity="1"
     stroke-width="1"
     stroke-linecap="square"
     stroke-linejoin="bevel"
     transform="matrix(1.00313,0,0,1.00313,-711.41148,-39.07771)"
     font-family="'.AppleSystemUIFont'"
     font-size="13px"
     font-weight="400"
     font-style="normal"
     id="g52"
     style="fill-rule:evenodd" />
  <g
     fill="none"
     stroke="#000000"
     stroke-opacity="1"
     stroke-width="1"
     stroke-linecap="square"
     stroke-linejoin="bevel"
     transform="matrix(1.00313,0,0,1.00313,-711.41148,-39.07771)"
     font-family="'.AppleSystemUIFont'"
     font-size="13px"
     font-weight="400"
     font-style="normal"
     id="g54"
     style="fill-rule:evenodd" />
  <g
     fill="none"
     stroke="#000000"
     stroke-opacity="1"
     stroke-width="1"
     stroke-linecap="square"
     stroke-linejoin="bevel"
     transform="matrix(1.00313,0,0,1.00313,-711.41148,-39.07771)"
     font-family="'.AppleSystemUIFont'"
     font-size="13px"
     font-weight="400"
     font-style="normal"
     id="g56"
     style="fill-rule:evenodd" />
  <g
     fill="none"
     stroke="#000000"
     stroke-opacity="1"
     stroke-width="1"
     stroke-linecap="square"
     stroke-linejoin="bevel"
     transform="matrix(1.00313,0,0,1.00313,-711.41148,-39.07771)"
     font-family="'.AppleSystemUIFont'"
     font-size="13px"
     font-weight="400"
     font-style="normal"
     id="g58"
     style="fill-rule:evenodd" />
  <g
     fill="none"
     stroke="#56b4e9"
     stroke-opacity="1"
     stroke-width="2"
     stroke-linecap="round"
     stroke-linejoin="round"
     transform="matrix(1.00313,0,0,1.00313,-11.535995,-11.034959)"
     font-family="'.AppleSystemUIFont'"
     font-size="13px"
     font-weight="400"
     font-style="normal"
     id="g62"
     style="fill-rule:evenodd">
    <polyline
       fill="none"
       vector-effect="none"
       points="12.5,115.6 12.5,115.6 18.7,133.6 24.9,150.9 31.1,167 37.2,181.2 43.4,193 49.6,202.1 55.8,208 62,210.6 68.2,209.7 74.4,205.4 80.5,197.9 86.7,187.5 92.9,174.4 99.1,159.2 105.3,142.4 111.5,124.6 117.7,106.6 123.8,88.8 130,72 136.2,56.8 142.4,43.7 148.6,33.2 154.8,25.7 161,21.5 167.1,20.6 173.3,23.2 179.5,29.1 185.7,38.1 191.9,50 198.1,64.2 204.3,80.3 210.4,97.6 216.6,115.6 222.8,133.6 229,150.9 235.2,167 241.4,181.2 247.6,193 253.7,202.1 259.9,208 266.1,210.6 272.3,209.7 278.5,205.4 284.7,197.9 290.9,187.5 297,174.4 303.2,159.2 309.4,142.4 315.6,124.6 321.8,106.6 328,88.8 334.2,72 340.4,56.8 346.5,43.7 352.7,33.2 358.9,25.7 365.1,21.5 371.3,20.6 377.5,23.2 383.7,29.1 389.8,38.1 396,50 402.2,64.2 408.4,80.3 414.6,97.6 420.8,115.6 427,133.6 433.1,150.9 439.3,167 445.5,181.2 451.7,193 457.9,202.1 464.1,208 470.3,210.6 476.4,209.7 482.6,205.4 488.8,197.9 495,187.5 501.2,174.4 507.4,159.2 513.6,142.4 519.7,124.6 525.9,106.6 532.1,88.8 538.3,72 544.5,56.8 550.7,43.7 556.9,33.2 563,25.7 569.2,21.5 575.4,20.6 581.6,23.2 587.8,29.1 594,38.1 600.2,50 606.3,64.2 612.5,80.3 618.7,97.6 624.9,115.6 "
       id="polyline60" />
  </g>
  <g
     fill="none"
     stroke="#000000"
     stroke-opacity="1"
     stroke-width="1"
     stroke-linecap="square"
     stroke-linejoin="bevel"
     transform="matrix(1.00313,0,0,1.00313,-711.41148,-39.07771)"
     font-family="'.AppleSystemUIFont'"
     font-size="13px"
     font-weight="400"
     font-style="normal"
     id="g64"
     style="fill-rule:evenodd" />
  <g
     fill="none"
     stroke="#000000"
     stroke-opacity="1"
     stroke-width="1"
     stroke-linecap="square"
     stroke-linejoin="bevel"
     transform="matrix(1.00313,0,0,1.00313,-711.41148,-39.07771)"
     font-family="'.AppleSystemUIFont'"
     font-size="13px"
     font-weight="400"
     font-style="normal"
     id="g66"
     style="fill-rule:evenodd" />
  <g
     fill="none"
     stroke="#ffffff"
     stroke-opacity="1"
     stroke-width="1"
     stroke-linecap="round"
     stroke-linejoin="round"
     transform="matrix(1.00313,0,0,1.00313,-11.535995,-11.034959)"
     font-family="'.AppleSystemUIFont'"
     font-size="13px"
     font-weight="400"
     font-style="normal"
     id="g70"
     style="fill-rule:evenodd">
    <polyline
       fill="none"
       vector-effect="none"
       points="12.5,11.5 12.5,457.5 624.5,457.5 624.5,11.5 12.5,11.5 "
       id="polyline68" />
  </g>
  <g
     fill="none"
     stroke="#000000"
     stroke-opacity="1"
     stroke-width="1"
     stroke-linecap="square"
     stroke-linejoin="bevel"
     transform="matrix(1.00313,0,0,1.00313,-711.41148,-39.07771)"
     font-family="'.AppleSystemUIFont'"
     font-size="13px"
     font-weight="400"
     font-style="normal"
     id="g72"
     style="fill-rule:evenodd" />
  <g
     fill="none"
     stroke="#000000"
     stroke-opacity="1"
     stroke-width="1"
     stroke-linecap="square"
     stroke-linejoin="bevel"
     font-family="'.AppleSystemUIFont'"
     font-size="13px"
     font-weight="400"
     font-style="normal"
     id="g74"
     style="fill-rule:evenodd"
     transform="translate(-711.41148,-39.07771)" />
</svg>
