<?xml version="1.0" encoding="UTF-8" standalone="no"?>
<svg
   width="104.18269mm"
   height="158.185mm"
   viewBox="0 0 295.32145 448.39812"
   version="1.2"
   id="svg114"
   sodipodi:docname="2.svg"
   inkscape:version="1.1.2 (b8e25be833, 2022-02-05)"
   xmlns:inkscape="http://www.inkscape.org/namespaces/inkscape"
   xmlns:sodipodi="http://sodipodi.sourceforge.net/DTD/sodipodi-0.dtd"
   xmlns="http://www.w3.org/2000/svg"
   xmlns:svg="http://www.w3.org/2000/svg">
  <sodipodi:namedview
     id="namedview116"
     pagecolor="#ffffff"
     bordercolor="#666666"
     borderopacity="1.0"
     inkscape:pageshadow="2"
     inkscape:pageopacity="0.0"
     inkscape:pagecheckerboard="0"
     inkscape:document-units="mm"
     showgrid="false"
     inkscape:zoom="1.2570112"
     inkscape:cx="386.23364"
     inkscape:cy="302.30439"
     inkscape:window-width="1858"
     inkscape:window-height="1057"
     inkscape:window-x="-8"
     inkscape:window-y="-8"
     inkscape:window-maximized="1"
     inkscape:current-layer="svg114" />
  <title
     id="title2">Qt SVG Document</title>
  <desc
     id="desc4">Generated with Qt</desc>
  <defs
     id="defs6" />
  <g
     fill="none"
     stroke="#000000"
     stroke-opacity="1"
     stroke-width="1"
     stroke-linecap="square"
     stroke-linejoin="bevel"
     font-family="'.AppleSystemUIFont'"
     font-size="13px"
     font-weight="400"
     font-style="normal"
     id="g8"
     style="fill-rule:evenodd"
     transform="translate(-730.50442,-25.354661)" />
  <g
     fill="none"
     stroke="#000000"
     stroke-opacity="1"
     stroke-width="1"
     stroke-linecap="square"
     stroke-linejoin="bevel"
     transform="matrix(1.00313,0,0,1.00313,-730.50442,-25.354661)"
     font-family="'.AppleSystemUIFont'"
     font-size="13px"
     font-weight="400"
     font-style="normal"
     id="g10"
     style="fill-rule:evenodd" />
  <g
     fill="none"
     stroke="#000000"
     stroke-opacity="1"
     stroke-width="1"
     stroke-linecap="square"
     stroke-linejoin="bevel"
     transform="matrix(1.00313,0,0,1.00313,-730.50442,-25.354661)"
     font-family="'.AppleSystemUIFont'"
     font-size="13px"
     font-weight="400"
     font-style="normal"
     id="g16"
     style="fill-rule:evenodd" />
  <g
     fill="none"
     stroke="#000000"
     stroke-opacity="1"
     stroke-width="1"
     stroke-linecap="square"
     stroke-linejoin="bevel"
     transform="matrix(1.00313,0,0,1.00313,-730.50442,-25.354661)"
     font-family="'.AppleSystemUIFont'"
     font-size="13px"
     font-weight="400"
     font-style="normal"
     id="g18"
     style="fill-rule:evenodd" />
  <g
     fill="none"
     stroke="#ffffff"
     stroke-opacity="1"
     stroke-width="1"
     stroke-linecap="round"
     stroke-linejoin="round"
     transform="matrix(1.00313,0,0,1.00313,-11.535995,-11.034959)"
     font-family="'.AppleSystemUIFont'"
     font-size="13px"
     font-weight="400"
     font-style="normal"
     id="g26"
     style="fill-rule:evenodd">
    <polyline
       fill="none"
       vector-effect="none"
       points="12.5,11.5 12.5,457.5 304.5,457.5 304.5,11.5 12.5,11.5 "
       id="polyline24" />
  </g>
  <g
     fill="none"
     stroke="#000000"
     stroke-opacity="1"
     stroke-width="1"
     stroke-linecap="square"
     stroke-linejoin="bevel"
     transform="matrix(1.00313,0,0,1.00313,-730.50442,-25.354661)"
     font-family="'.AppleSystemUIFont'"
     font-size="13px"
     font-weight="400"
     font-style="normal"
     id="g28"
     style="fill-rule:evenodd" />
  <g
     fill="none"
     stroke="#000000"
     stroke-opacity="1"
     stroke-width="1"
     stroke-linecap="square"
     stroke-linejoin="bevel"
     transform="matrix(1.00313,0,0,1.00313,-730.50442,-25.354661)"
     font-family="'.AppleSystemUIFont'"
     font-size="13px"
     font-weight="400"
     font-style="normal"
     id="g30"
     style="fill-rule:evenodd" />
  <g
     fill="none"
     stroke="#000000"
     stroke-opacity="1"
     stroke-width="1"
     stroke-linecap="square"
     stroke-linejoin="bevel"
     transform="matrix(1.00313,0,0,1.00313,-730.50442,-25.354661)"
     font-family="'.AppleSystemUIFont'"
     font-size="13px"
     font-weight="400"
     font-style="normal"
     id="g32"
     style="fill-rule:evenodd" />
  <g
     fill="none"
     stroke="#000000"
     stroke-opacity="1"
     stroke-width="1"
     stroke-linecap="square"
     stroke-linejoin="bevel"
     transform="matrix(1.00313,0,0,1.00313,-730.50442,-25.354661)"
     font-family="'.AppleSystemUIFont'"
     font-size="13px"
     font-weight="400"
     font-style="normal"
     id="g34"
     style="fill-rule:evenodd" />
  <g
     fill="none"
     stroke="#56b4e9"
     stroke-opacity="1"
     stroke-width="2"
     stroke-linecap="round"
     stroke-linejoin="round"
     transform="matrix(1.00313,0,0,1.00313,-11.535995,-11.034959)"
     font-family="'.AppleSystemUIFont'"
     font-size="13px"
     font-weight="400"
     font-style="normal"
     id="g38"
     style="fill-rule:evenodd">
    <polyline
       fill="none"
       vector-effect="none"
       points="12.5,305.8 12.5,305.8 15.5,311.8 18.4,317.8 21.4,323.8 24.3,329.6 27.3,335.4 30.2,341.1 33.2,346.6 36.1,352 39.1,357.2 42,362.1 45,366.9 47.9,371.4 50.9,375.6 53.8,379.6 56.8,383.2 59.8,386.6 62.7,389.6 65.7,392.3 68.6,394.6 71.6,396.6 74.5,398.2 77.5,399.4 80.4,400.3 83.4,400.7 86.3,400.8 89.3,400.5 92.2,399.9 95.2,398.8 98.2,397.4 101.1,395.6 104.1,393.5 107,391 110,388.1 112.9,384.9 115.9,381.4 118.8,377.6 121.8,373.5 124.7,369.2 127.7,364.5 130.6,359.7 133.6,354.6 136.5,349.3 139.5,343.9 142.5,338.3 145.4,332.6 148.4,326.7 151.3,320.8 154.3,314.8 157.2,308.8 160.2,302.7 163.1,296.7 166.1,290.7 169,284.8 172,279 174.9,273.2 177.9,267.6 180.9,262.2 183.8,256.9 186.8,251.8 189.7,247 192.7,242.4 195.6,238 198.6,233.9 201.5,230.1 204.5,226.6 207.4,223.4 210.4,220.6 213.3,218.1 216.3,215.9 219.2,214.1 222.2,212.7 225.2,211.6 228.1,211 231.1,210.7 234,210.8 237,211.3 239.9,212.1 242.9,213.4 245.8,215 248.8,216.9 251.7,219.3 254.7,222 257.6,225 260.6,228.3 263.6,232 266.5,235.9 269.5,240.1 272.4,244.6 275.4,249.4 278.3,254.4 281.3,259.5 284.2,264.9 287.2,270.4 290.1,276.1 293.1,281.9 296,287.8 299,293.7 301.9,299.7 304.9,305.8 "
       id="polyline36" />
  </g>
  <g
     fill="none"
     stroke="#000000"
     stroke-opacity="1"
     stroke-width="1"
     stroke-linecap="square"
     stroke-linejoin="bevel"
     transform="matrix(1.00313,0,0,1.00313,-730.50442,-25.354661)"
     font-family="'.AppleSystemUIFont'"
     font-size="13px"
     font-weight="400"
     font-style="normal"
     id="g40"
     style="fill-rule:evenodd" />
  <g
     fill="none"
     stroke="#000000"
     stroke-opacity="1"
     stroke-width="1"
     stroke-linecap="square"
     stroke-linejoin="bevel"
     transform="matrix(1.00313,0,0,1.00313,-730.50442,-25.354661)"
     font-family="'.AppleSystemUIFont'"
     font-size="13px"
     font-weight="400"
     font-style="normal"
     id="g42"
     style="fill-rule:evenodd" />
  <g
     fill="none"
     stroke="#000000"
     stroke-opacity="1"
     stroke-width="1"
     stroke-linecap="square"
     stroke-linejoin="bevel"
     transform="matrix(1.00313,0,0,1.00313,-730.50442,-25.354661)"
     font-family="'.AppleSystemUIFont'"
     font-size="13px"
     font-weight="400"
     font-style="normal"
     id="g44"
     style="fill-rule:evenodd" />
  <g
     fill="none"
     stroke="#000000"
     stroke-opacity="1"
     stroke-width="1"
     stroke-linecap="square"
     stroke-linejoin="bevel"
     transform="matrix(1.00313,0,0,1.00313,-730.50442,-25.354661)"
     font-family="'.AppleSystemUIFont'"
     font-size="13px"
     font-weight="400"
     font-style="normal"
     id="g46"
     style="fill-rule:evenodd" />
  <g
     fill="none"
     stroke="#56b4e9"
     stroke-opacity="1"
     stroke-width="2"
     stroke-linecap="round"
     stroke-linejoin="round"
     transform="matrix(1.00313,0,0,1.00313,-11.535995,-11.034959)"
     font-family="'.AppleSystemUIFont'"
     font-size="13px"
     font-weight="400"
     font-style="normal"
     id="g50"
     style="fill-rule:evenodd">
    <polyline
       fill="none"
       vector-effect="none"
       points="12.5,210.7 12.5,210.7 15.5,198.6 18.4,186.8 21.4,175.3 24.3,164.4 27.3,154.3 30.2,145.1 33.2,136.9 36.1,129.9 39.1,124.2 42,119.9 45,117 47.9,115.7 50.9,115.9 53.8,117.6 56.8,120.8 59.8,125.5 62.7,131.5 65.7,138.8 68.6,147.3 71.6,156.8 74.5,167.1 77.5,178.2 80.4,189.7 83.4,201.6 86.3,213.7 89.3,225.7 92.2,237.5 95.2,248.8 98.2,259.5 101.1,269.5 104.1,278.4 107,286.3 110,293 112.9,298.4 115.9,302.3 118.8,304.8 121.8,305.8 124.7,305.2 127.7,303.1 130.6,299.5 133.6,294.5 136.5,288.1 139.5,280.5 142.5,271.8 145.4,262.1 148.4,251.5 151.3,240.3 154.3,228.7 157.2,216.7 160.2,204.6 163.1,192.7 166.1,181 169,169.8 172,159.3 174.9,149.6 177.9,140.8 180.9,133.2 183.8,126.9 186.8,121.9 189.7,118.3 192.7,116.2 195.6,115.6 198.6,116.6 201.5,119 204.5,123 207.4,128.3 210.4,135 213.3,142.9 216.3,151.9 219.2,161.8 222.2,172.6 225.2,183.9 228.1,195.7 231.1,207.7 234,219.7 237,231.6 239.9,243.2 242.9,254.2 245.8,264.6 248.8,274.1 251.7,282.5 254.7,289.8 257.6,295.9 260.6,300.5 263.6,303.7 266.5,305.5 269.5,305.7 272.4,304.3 275.4,301.5 278.3,297.2 281.3,291.5 284.2,284.5 287.2,276.3 290.1,267.1 293.1,256.9 296,246 299,234.6 301.9,222.7 304.9,210.7 "
       id="polyline48" />
  </g>
  <g
     fill="none"
     stroke="#000000"
     stroke-opacity="1"
     stroke-width="1"
     stroke-linecap="square"
     stroke-linejoin="bevel"
     transform="matrix(1.00313,0,0,1.00313,-730.50442,-25.354661)"
     font-family="'.AppleSystemUIFont'"
     font-size="13px"
     font-weight="400"
     font-style="normal"
     id="g52"
     style="fill-rule:evenodd" />
  <g
     fill="none"
     stroke="#000000"
     stroke-opacity="1"
     stroke-width="1"
     stroke-linecap="square"
     stroke-linejoin="bevel"
     transform="matrix(1.00313,0,0,1.00313,-730.50442,-25.354661)"
     font-family="'.AppleSystemUIFont'"
     font-size="13px"
     font-weight="400"
     font-style="normal"
     id="g54"
     style="fill-rule:evenodd" />
  <g
     fill="none"
     stroke="#000000"
     stroke-opacity="1"
     stroke-width="1"
     stroke-linecap="square"
     stroke-linejoin="bevel"
     transform="matrix(1.00313,0,0,1.00313,-730.50442,-25.354661)"
     font-family="'.AppleSystemUIFont'"
     font-size="13px"
     font-weight="400"
     font-style="normal"
     id="g56"
     style="fill-rule:evenodd" />
  <g
     fill="none"
     stroke="#000000"
     stroke-opacity="1"
     stroke-width="1"
     stroke-linecap="square"
     stroke-linejoin="bevel"
     transform="matrix(1.00313,0,0,1.00313,-730.50442,-25.354661)"
     font-family="'.AppleSystemUIFont'"
     font-size="13px"
     font-weight="400"
     font-style="normal"
     id="g58"
     style="fill-rule:evenodd" />
  <g
     fill="none"
     stroke="#56b4e9"
     stroke-opacity="1"
     stroke-width="2"
     stroke-linecap="round"
     stroke-linejoin="round"
     transform="matrix(1.00313,0,0,1.00313,-11.535995,-11.034959)"
     font-family="'.AppleSystemUIFont'"
     font-size="13px"
     font-weight="400"
     font-style="normal"
     id="g62"
     style="fill-rule:evenodd">
    <polyline
       fill="none"
       vector-effect="none"
       points="12.5,115.6 12.5,115.6 15.5,133.6 18.4,150.9 21.4,167 24.3,181.2 27.3,193 30.2,202.1 33.2,208 36.1,210.6 39.1,209.7 42,205.4 45,197.9 47.9,187.5 50.9,174.4 53.8,159.2 56.8,142.4 59.8,124.6 62.7,106.6 65.7,88.8 68.6,72 71.6,56.8 74.5,43.7 77.5,33.2 80.4,25.7 83.4,21.5 86.3,20.6 89.3,23.2 92.2,29.1 95.2,38.1 98.2,50 101.1,64.2 104.1,80.3 107,97.6 110,115.6 112.9,133.6 115.9,150.9 118.8,167 121.8,181.2 124.7,193 127.7,202.1 130.6,208 133.6,210.6 136.5,209.7 139.5,205.4 142.5,197.9 145.4,187.5 148.4,174.4 151.3,159.2 154.3,142.4 157.2,124.6 160.2,106.6 163.1,88.8 166.1,72 169,56.8 172,43.7 174.9,33.2 177.9,25.7 180.9,21.5 183.8,20.6 186.8,23.2 189.7,29.1 192.7,38.1 195.6,50 198.6,64.2 201.5,80.3 204.5,97.6 207.4,115.6 210.4,133.6 213.3,150.9 216.3,167 219.2,181.2 222.2,193 225.2,202.1 228.1,208 231.1,210.6 234,209.7 237,205.4 239.9,197.9 242.9,187.5 245.8,174.4 248.8,159.2 251.7,142.4 254.7,124.6 257.6,106.6 260.6,88.8 263.6,72 266.5,56.8 269.5,43.7 272.4,33.2 275.4,25.7 278.3,21.5 281.3,20.6 284.2,23.2 287.2,29.1 290.1,38.1 293.1,50 296,64.2 299,80.3 301.9,97.6 304.9,115.6 "
       id="polyline60" />
  </g>
  <g
     fill="none"
     stroke="#000000"
     stroke-opacity="1"
     stroke-width="1"
     stroke-linecap="square"
     stroke-linejoin="bevel"
     transform="matrix(1.00313,0,0,1.00313,-730.50442,-25.354661)"
     font-family="'.AppleSystemUIFont'"
     font-size="13px"
     font-weight="400"
     font-style="normal"
     id="g64"
     style="fill-rule:evenodd" />
  <g
     fill="none"
     stroke="#000000"
     stroke-opacity="1"
     stroke-width="1"
     stroke-linecap="square"
     stroke-linejoin="bevel"
     transform="matrix(1.00313,0,0,1.00313,-730.50442,-25.354661)"
     font-family="'.AppleSystemUIFont'"
     font-size="13px"
     font-weight="400"
     font-style="normal"
     id="g66"
     style="fill-rule:evenodd" />
  <g
     fill="none"
     stroke="#000000"
     stroke-opacity="1"
     stroke-width="1"
     stroke-linecap="square"
     stroke-linejoin="bevel"
     transform="matrix(1.00313,0,0,1.00313,-730.50442,-25.354661)"
     font-family="'.AppleSystemUIFont'"
     font-size="13px"
     font-weight="400"
     font-style="normal"
     id="g68"
     style="fill-rule:evenodd" />
  <g
     fill="none"
     stroke="#000000"
     stroke-opacity="1"
     stroke-width="1"
     stroke-linecap="square"
     stroke-linejoin="bevel"
     transform="matrix(1.00313,0,0,1.00313,-730.50442,-25.354661)"
     font-family="'.AppleSystemUIFont'"
     font-size="13px"
     font-weight="400"
     font-style="normal"
     id="g70"
     style="fill-rule:evenodd" />
  <g
     fill="none"
     stroke="#e69f00"
     stroke-opacity="1"
     stroke-width="2"
     stroke-linecap="round"
     stroke-linejoin="round"
     transform="matrix(1.00313,0,0,1.00313,-11.535995,-11.034959)"
     font-family="'.AppleSystemUIFont'"
     font-size="13px"
     font-weight="400"
     font-style="normal"
     id="g74"
     style="fill-rule:evenodd">
    <polyline
       fill="none"
       vector-effect="none"
       points="12.5,448.4 12.5,448.4 15.5,448.3 18.4,448.2 21.4,448 24.3,447.6 27.3,447.2 30.2,446.7 33.2,446.1 36.1,445.3 39.1,444.5 42,443.6 45,442.7 47.9,441.6 50.9,440.4 53.8,439.2 56.8,437.8 59.8,436.4 62.7,434.9 65.7,433.3 68.6,431.6 71.6,429.9 74.5,428 77.5,426.1 80.4,424.2 83.4,422.1 86.3,420 89.3,417.8 92.2,415.6 95.2,413.3 98.2,410.9 101.1,408.5 104.1,406 107,403.4 110,400.8 112.9,398.2 115.9,395.5 118.8,392.8 121.8,390 124.7,387.2 127.7,384.4 130.6,381.5 133.6,378.6 136.5,375.7 139.5,372.8 142.5,369.8 145.4,366.8 148.4,363.8 151.3,360.8 154.3,357.8 157.2,354.8 160.2,351.8 163.1,348.8 166.1,345.8 169,342.8 172,339.8 174.9,336.8 177.9,333.8 180.9,330.9 183.8,328 186.8,325.1 189.7,322.2 192.7,319.4 195.6,316.6 198.6,313.8 201.5,311.1 204.5,308.4 207.4,305.8 210.4,303.2 213.3,300.6 216.3,298.2 219.2,295.7 222.2,293.4 225.2,291 228.1,288.8 231.1,286.6 234,284.5 237,282.4 239.9,280.5 242.9,278.6 245.8,276.7 248.8,275 251.7,273.3 254.7,271.7 257.6,270.2 260.6,268.8 263.6,267.5 266.5,266.2 269.5,265 272.4,264 275.4,263 278.3,262.1 281.3,261.3 284.2,260.6 287.2,259.9 290.1,259.4 293.1,259 296,258.7 299,258.4 301.9,258.3 304.9,258.2 "
       id="polyline72" />
  </g>
  <g
     fill="none"
     stroke="#000000"
     stroke-opacity="1"
     stroke-width="1"
     stroke-linecap="square"
     stroke-linejoin="bevel"
     transform="matrix(1.00313,0,0,1.00313,-730.50442,-25.354661)"
     font-family="'.AppleSystemUIFont'"
     font-size="13px"
     font-weight="400"
     font-style="normal"
     id="g76"
     style="fill-rule:evenodd" />
  <g
     fill="none"
     stroke="#000000"
     stroke-opacity="1"
     stroke-width="1"
     stroke-linecap="square"
     stroke-linejoin="bevel"
     transform="matrix(1.00313,0,0,1.00313,-730.50442,-25.354661)"
     font-family="'.AppleSystemUIFont'"
     font-size="13px"
     font-weight="400"
     font-style="normal"
     id="g78"
     style="fill-rule:evenodd" />
  <g
     fill="none"
     stroke="#000000"
     stroke-opacity="1"
     stroke-width="1"
     stroke-linecap="square"
     stroke-linejoin="bevel"
     transform="matrix(1.00313,0,0,1.00313,-730.50442,-25.354661)"
     font-family="'.AppleSystemUIFont'"
     font-size="13px"
     font-weight="400"
     font-style="normal"
     id="g80"
     style="fill-rule:evenodd" />
  <g
     fill="none"
     stroke="#000000"
     stroke-opacity="1"
     stroke-width="1"
     stroke-linecap="square"
     stroke-linejoin="bevel"
     transform="matrix(1.00313,0,0,1.00313,-730.50442,-25.354661)"
     font-family="'.AppleSystemUIFont'"
     font-size="13px"
     font-weight="400"
     font-style="normal"
     id="g82"
     style="fill-rule:evenodd" />
  <g
     fill="none"
     stroke="#e69f00"
     stroke-opacity="1"
     stroke-width="2"
     stroke-linecap="round"
     stroke-linejoin="round"
     transform="matrix(1.00313,0,0,1.00313,-11.535995,-11.034959)"
     font-family="'.AppleSystemUIFont'"
     font-size="13px"
     font-weight="400"
     font-style="normal"
     id="g86"
     style="fill-rule:evenodd">
    <polyline
       fill="none"
       vector-effect="none"
       points="12.5,163.1 12.5,163.1 15.5,163.6 18.4,164.9 21.4,167 24.3,169.9 27.3,173.7 30.2,178.2 33.2,183.5 36.1,189.4 39.1,196 42,203.1 45,210.7 47.9,218.7 50.9,227.1 53.8,235.8 56.8,244.7 59.8,253.7 62.7,262.7 65.7,271.8 68.6,280.6 71.6,289.3 74.5,297.7 77.5,305.8 80.4,313.4 83.4,320.5 86.3,327 89.3,333 92.2,338.2 95.2,342.7 98.2,346.5 101.1,349.5 104.1,351.6 107,352.9 110,353.3 112.9,352.9 115.9,351.6 118.8,349.5 121.8,346.5 124.7,342.7 127.7,338.2 130.6,333 133.6,327 136.5,320.5 139.5,313.4 142.5,305.8 145.4,297.7 148.4,289.3 151.3,280.6 154.3,271.8 157.2,262.7 160.2,253.7 163.1,244.7 166.1,235.8 169,227.1 172,218.7 174.9,210.7 177.9,203.1 180.9,196 183.8,189.4 186.8,183.5 189.7,178.2 192.7,173.7 195.6,169.9 198.6,167 201.5,164.9 204.5,163.6 207.4,163.1 210.4,163.6 213.3,164.9 216.3,167 219.2,169.9 222.2,173.7 225.2,178.2 228.1,183.5 231.1,189.4 234,196 237,203.1 239.9,210.7 242.9,218.7 245.8,227.1 248.8,235.8 251.7,244.7 254.7,253.7 257.6,262.7 260.6,271.8 263.6,280.6 266.5,289.3 269.5,297.7 272.4,305.8 275.4,313.4 278.3,320.5 281.3,327 284.2,333 287.2,338.2 290.1,342.7 293.1,346.5 296,349.5 299,351.6 301.9,352.9 304.9,353.3 "
       id="polyline84" />
  </g>
  <g
     fill="none"
     stroke="#000000"
     stroke-opacity="1"
     stroke-width="1"
     stroke-linecap="square"
     stroke-linejoin="bevel"
     transform="matrix(1.00313,0,0,1.00313,-730.50442,-25.354661)"
     font-family="'.AppleSystemUIFont'"
     font-size="13px"
     font-weight="400"
     font-style="normal"
     id="g88"
     style="fill-rule:evenodd" />
  <g
     fill="none"
     stroke="#000000"
     stroke-opacity="1"
     stroke-width="1"
     stroke-linecap="square"
     stroke-linejoin="bevel"
     transform="matrix(1.00313,0,0,1.00313,-730.50442,-25.354661)"
     font-family="'.AppleSystemUIFont'"
     font-size="13px"
     font-weight="400"
     font-style="normal"
     id="g90"
     style="fill-rule:evenodd" />
  <g
     fill="none"
     stroke="#000000"
     stroke-opacity="1"
     stroke-width="1"
     stroke-linecap="square"
     stroke-linejoin="bevel"
     transform="matrix(1.00313,0,0,1.00313,-730.50442,-25.354661)"
     font-family="'.AppleSystemUIFont'"
     font-size="13px"
     font-weight="400"
     font-style="normal"
     id="g92"
     style="fill-rule:evenodd" />
  <g
     fill="none"
     stroke="#000000"
     stroke-opacity="1"
     stroke-width="1"
     stroke-linecap="square"
     stroke-linejoin="bevel"
     transform="matrix(1.00313,0,0,1.00313,-730.50442,-25.354661)"
     font-family="'.AppleSystemUIFont'"
     font-size="13px"
     font-weight="400"
     font-style="normal"
     id="g94"
     style="fill-rule:evenodd" />
  <g
     fill="none"
     stroke="#e69f00"
     stroke-opacity="1"
     stroke-width="2"
     stroke-linecap="round"
     stroke-linejoin="round"
     transform="matrix(1.00313,0,0,1.00313,-11.535995,-11.034959)"
     font-family="'.AppleSystemUIFont'"
     font-size="13px"
     font-weight="400"
     font-style="normal"
     id="g98"
     style="fill-rule:evenodd">
    <polyline
       fill="none"
       vector-effect="none"
       points="12.5,258.2 12.5,258.2 15.5,257 18.4,253.5 21.4,247.7 24.3,239.7 27.3,229.8 30.2,218.3 33.2,205.4 36.1,191.4 39.1,176.7 42,161.6 45,146.6 47.9,132 50.9,118.2 53.8,105.6 56.8,94.3 59.8,84.8 62.7,77.3 65.7,71.9 68.6,68.8 71.6,68.1 74.5,69.8 77.5,73.8 80.4,80 83.4,88.4 86.3,98.6 89.3,110.5 92.2,123.6 95.2,137.8 98.2,152.6 101.1,167.7 104.1,182.6 107,197.1 110,210.7 112.9,223.1 115.9,234 118.8,243.1 121.8,250.2 124.7,255.2 127.7,257.8 130.6,258 133.6,255.9 136.5,251.4 139.5,244.7 142.5,236 145.4,225.4 148.4,213.3 151.3,199.9 154.3,185.6 157.2,170.7 160.2,155.6 163.1,140.7 166.1,126.4 169,113 172,100.9 174.9,90.3 177.9,81.6 180.9,74.9 183.8,70.4 186.8,68.2 189.7,68.5 192.7,71.1 195.6,76 198.6,83.1 201.5,92.3 204.5,103.2 207.4,115.6 210.4,129.2 213.3,143.7 216.3,158.6 219.2,173.7 222.2,188.5 225.2,202.6 228.1,215.8 231.1,227.7 234,237.9 237,246.2 239.9,252.5 242.9,256.5 245.8,258.2 248.8,257.5 251.7,254.4 254.7,249 257.6,241.5 260.6,232 263.6,220.7 266.5,208 269.5,194.2 272.4,179.6 275.4,164.6 278.3,149.6 281.3,134.9 284.2,120.9 287.2,108 290.1,96.4 293.1,86.6 296,78.6 299,72.8 301.9,69.2 304.9,68.1 "
       id="polyline96" />
  </g>
  <g
     fill="none"
     stroke="#000000"
     stroke-opacity="1"
     stroke-width="1"
     stroke-linecap="square"
     stroke-linejoin="bevel"
     transform="matrix(1.00313,0,0,1.00313,-730.50442,-25.354661)"
     font-family="'.AppleSystemUIFont'"
     font-size="13px"
     font-weight="400"
     font-style="normal"
     id="g100"
     style="fill-rule:evenodd" />
  <g
     fill="none"
     stroke="#000000"
     stroke-opacity="1"
     stroke-width="1"
     stroke-linecap="square"
     stroke-linejoin="bevel"
     transform="matrix(1.00313,0,0,1.00313,-730.50442,-25.354661)"
     font-family="'.AppleSystemUIFont'"
     font-size="13px"
     font-weight="400"
     font-style="normal"
     id="g102"
     style="fill-rule:evenodd" />
  <g
     fill="none"
     stroke="#ffffff"
     stroke-opacity="1"
     stroke-width="1"
     stroke-linecap="round"
     stroke-linejoin="round"
     transform="matrix(1.00313,0,0,1.00313,-11.535995,-11.034959)"
     font-family="'.AppleSystemUIFont'"
     font-size="13px"
     font-weight="400"
     font-style="normal"
     id="g106"
     style="fill-rule:evenodd">
    <polyline
       fill="none"
       vector-effect="none"
       points="12.5,11.5 12.5,457.5 304.5,457.5 304.5,11.5 12.5,11.5 "
       id="polyline104" />
  </g>
  <g
     fill="none"
     stroke="#000000"
     stroke-opacity="1"
     stroke-width="1"
     stroke-linecap="square"
     stroke-linejoin="bevel"
     transform="matrix(1.00313,0,0,1.00313,-730.50442,-25.354661)"
     font-family="'.AppleSystemUIFont'"
     font-size="13px"
     font-weight="400"
     font-style="normal"
     id="g108"
     style="fill-rule:evenodd" />
  <g
     fill="none"
     stroke="#000000"
     stroke-opacity="1"
     stroke-width="1"
     stroke-linecap="square"
     stroke-linejoin="bevel"
     font-family="'.AppleSystemUIFont'"
     font-size="13px"
     font-weight="400"
     font-style="normal"
     id="g110"
     style="fill-rule:evenodd"
     transform="translate(-730.50442,-25.354661)" />
</svg>
